<svg id="Group_1_copy" data-name="Group 1 copy" xmlns="http://www.w3.org/2000/svg" width="462" height="61" viewBox="0 0 462 61">
  <defs>
    <style>
      .cls-1 {
        fill: none;
        stroke: #fff;
        stroke-width: 1px;
        fill-rule: evenodd;
      }
    </style>
  </defs>
  <path id="G" class="cls-1" d="M21.2,19.569v6.863h9.543c-0.848,3.965-4.895,6.289-9.9,6.289-6.891,0-11.484-4.375-11.484-11.812,0-7.793,5-12.113,11.156-12.113,4.32,0,7.957,2.078,9.023,5.77H38.37c-1.613-8.285-9-13.371-17.8-13.371C9.933,1.194.964,8.687,0.964,20.8c0,11.812,8.586,19.523,19.934,19.523,10.2,0,18.43-6.207,18.43-19.715V19.569H21.2Z"/>
  <path id="ü" class="cls-1" d="M49.921,11.093a4.972,4.972,0,0,0,4.922-4.922A4.922,4.922,0,1,0,49.921,11.093Zm12.441,0a4.972,4.972,0,0,0,4.922-4.922A4.936,4.936,0,1,0,62.363,11.093Zm-9.871,29.34a9.49,9.49,0,0,0,7.574-3.582v3.035H68.46V15.194H60.066V28.073c0,3.691-2.078,5.66-4.7,5.66-2.652,0-3.746-1.641-3.746-4.539v-14H43.195v14C43.195,35.921,45.9,40.433,52.491,40.433Z"/>
  <path id="v" class="cls-1" d="M80.593,39.886h9.9L99.9,15.194h-8.5L85.515,32.831,79.636,15.194H71.187Z"/>
  <path id="e" class="cls-1" d="M114.964,40.433c6.617,0,11.758-3.062,13.4-9.215h-8.531c-0.328,1.613-2.105,3.227-5.031,3.227-3.145,0-5.086-2.242-5.3-5.3h19.141V27.007c0-7.848-6.152-12.387-13.672-12.387-8.285,0-14.383,5.223-14.383,12.934C100.581,35.4,106.46,40.433,114.964,40.433ZM109.605,24.6a4.836,4.836,0,0,1,5.086-4.266c2.98,0,4.867,1.914,5.031,4.266H109.605Z"/>
  <path id="n" class="cls-1" d="M132.823,39.886h8.395V27.007c0-3.691,2.078-5.66,4.7-5.66s3.746,1.641,3.746,4.539v14h8.4v-14c0-6.727-2.68-11.266-9.27-11.266a9.53,9.53,0,0,0-7.574,3.582V15.194h-8.395V39.886Z"/>
  <path id="D" class="cls-1" d="M177.671,39.886h11.867c12.469,0,18.922-8.285,18.922-19.031,0-10.774-6.508-19.059-18.922-19.059H177.671v38.09Zm8.285-7.273V9.1h3.637c7.055,0,10.309,5.414,10.309,11.758,0,6.316-3.309,11.758-10.309,11.758h-3.637Z"/>
  <path id="e-2" data-name="e" class="cls-1" d="M225.964,40.433c6.617,0,11.758-3.062,13.4-9.215h-8.531c-0.328,1.613-2.1,3.227-5.031,3.227-3.145,0-5.086-2.242-5.305-5.3h19.141V27.007c0-7.848-6.152-12.387-13.672-12.387-8.285,0-14.383,5.223-14.383,12.934C211.581,35.4,217.46,40.433,225.964,40.433ZM220.605,24.6a4.836,4.836,0,0,1,5.086-4.266c2.98,0,4.867,1.914,5.031,4.266H220.605Z"/>
  <path id="ğ" class="cls-1" d="M257.413,10.874c5.36,0,9.68-2.953,9.68-9.078h-5.441c0,3.418-1.723,4.484-4.184,4.484-2.133,0-4.32-.9-4.32-4.484h-5.442C247.706,7.729,252.464,10.874,257.413,10.874Zm-0.765,43.012c8.394,0,14.273-3.691,14.273-11.812V15.194h-8.394V18.2a10.392,10.392,0,0,0-8.45-3.582c-7.574,0-12.277,5.5-12.277,12.879,0,7.41,4.7,12.879,12.277,12.879,3.117,0,6.754-.93,8.45-3.527v5.168c0,3.965-2.079,5.66-5.77,5.66-3.8,0-5.988-1.531-6.152-4.648h-8.422C242.593,51.1,249.374,53.886,256.648,53.886Zm0-20.207c-3.938,0-5.879-2.926-5.879-6.18,0-3.227,1.941-6.152,5.879-6.152,3.91,0,5.879,2.926,5.879,6.152C262.527,30.753,260.558,33.679,256.648,33.679Z"/>
  <path id="i" class="cls-1" d="M282.007,11.093a4.972,4.972,0,0,0,4.922-4.922A4.922,4.922,0,1,0,282.007,11.093Zm-4.184,28.793h8.4V15.194h-8.4V39.886Z"/>
  <path id="r" class="cls-1" d="M292.823,39.886h8.4V28.675c0-4.348,2.023-6.481,5.195-6.481a7.487,7.487,0,0,1,3.309.793h0.519V15.194a6.874,6.874,0,0,0-2.761-.574,7.906,7.906,0,0,0-6.262,3.582V15.194h-8.4V39.886Z"/>
  <path id="m" class="cls-1" d="M345.734,14.62c-3.719,0-6.426,1.039-8.778,3.91-1.613-3.145-4.648-3.91-7.355-3.91a9.106,9.106,0,0,0-7.383,3.582V15.194h-8.4V39.886h8.4v-13.1c0-3.527,1.5-5.441,4.375-5.441,2.789,0,3.746,1.914,3.746,5.441v13.1h8.395v-13.1c0-3.527,1.285-5.441,4.32-5.441,3.008,0,3.8,1.914,3.8,5.441v13.1h8.394V23.972C355.249,18.722,352.187,14.62,345.734,14.62Z"/>
  <path id="e-3" data-name="e" class="cls-1" d="M372.964,40.433c6.617,0,11.758-3.062,13.4-9.215h-8.531c-0.328,1.613-2.105,3.227-5.031,3.227-3.145,0-5.086-2.242-5.305-5.3h19.141V27.007c0-7.848-6.152-12.387-13.672-12.387-8.285,0-14.383,5.223-14.383,12.934C358.581,35.4,364.46,40.433,372.964,40.433ZM367.605,24.6a4.836,4.836,0,0,1,5.086-4.266c2.98,0,4.867,1.914,5.031,4.266H367.605Z"/>
  <path id="n-2" data-name="n" class="cls-1" d="M391.823,39.886h8.4V27.007c0-3.691,2.078-5.66,4.7-5.66s3.746,1.641,3.746,4.539v14h8.4v-14c0-6.727-2.68-11.266-9.27-11.266a9.53,9.53,0,0,0-7.574,3.582V15.194h-8.4V39.886Z"/>
  <path id="c" class="cls-1" d="M433.843,40.433c8.012,0,13.125-4.758,13.508-10.445h-8.34c-0.3,2.406-1.641,3.965-4.539,3.965-3.8,0-5.387-3.145-5.387-6.453,0-3.227,1.586-6.371,5.387-6.371,2.9,0,4.238,1.559,4.539,3.965h8.34c-0.383-5.715-5.5-10.473-13.508-10.473-8.231,0-13.152,5.879-13.152,12.879C420.691,34.554,425.612,40.433,433.843,40.433Z"/>
  <path id="i-2" data-name="i" class="cls-1" d="M456.007,11.093a4.972,4.972,0,0,0,4.922-4.922A4.922,4.922,0,1,0,456.007,11.093Zm-4.184,28.793h8.4V15.194h-8.4V39.886Z"/>
</svg>
